grf
version=1
nRows=14
nColumns=37
inDegrees=no
endheader
time	ground_force_1_vx	ground_force_1_vy	ground_force_1_vz	ground_force_1_px	ground_force_1_py	ground_force_1_pz	ground_moment_1_mx	ground_moment_1_my	ground_moment_1_mz	ground_force_2_vx	ground_force_2_vy	ground_force_2_vz	ground_force_2_px	ground_force_2_py	ground_force_2_pz	ground_moment_2_mx	ground_moment_2_my	ground_moment_2_mz	ground_force_3_vx	ground_force_3_vy	ground_force_3_vz	ground_force_3_px	ground_force_3_py	ground_force_3_pz	ground_moment_3_mx	ground_moment_3_my	ground_moment_3_mz	ground_force_4_vx	ground_force_4_vy	ground_force_4_vz	ground_force_4_px	ground_force_4_py	ground_force_4_pz	ground_moment_4_mx	ground_moment_4_my	ground_moment_4_mz
      2.23000000	      0.00000000	     -0.00000000	      0.00000000	      0.00000000	      0.00000000	      0.00000000	      0.00000000	      0.00000000	      0.00000000	      2.28783798	     56.22864532	   -399.74957275	   -398.79882745	  -1162.13695418	      0.00000000	      0.00000000	      0.00000000	    944.50163241	     -2.46526982	    -57.40909555	   -412.54370117	   -401.34042223	   -702.74128335	      0.00000000	      0.00000000	     -0.00000000	  -2778.67031473	      0.00000000	     -0.00000000	      0.00000000	      0.00000000	      0.00000000	      0.00000000	      0.00000000	      0.00000000	      0.00000000
      2.24000000	      0.00000000	     -0.00000000	      0.00000000	      0.00000000	      0.00000000	      0.00000000	      0.00000000	      0.00000000	      0.00000000	      2.38952661	     56.59780884	   -398.46279907	   -400.96258931	  -1161.09872458	      0.00000000	      0.00000000	      0.00000000	    931.17415139	     -2.20523335	    -57.40909557	   -413.12042236	   -401.34458299	   -702.40053749	      0.00000000	      0.00000000	     -0.00000000	  -2823.92137561	      0.00000000	     -0.00000000	      0.00000000	      0.00000000	      0.00000000	      0.00000000	      0.00000000	      0.00000000	      0.00000000
      2.25000000	      0.00000000	     -0.00000000	      0.00000000	      0.00000000	      0.00000000	      0.00000000	      0.00000000	      0.00000000	      0.00000000	      3.03961587	     56.84583664	   -399.49768066	   -402.18236341	  -1161.84331673	      0.00000000	      0.00000000	      0.00000000	   1098.60559420	     -2.14175014	    -57.75606900	   -414.56781006	   -401.51327014	   -700.95377203	      0.00000000	      0.00000000	     -0.00000000	  -3023.68291985	      0.00000000	     -0.00000000	      0.00000000	      0.00000000	      0.00000000	      0.00000000	      0.00000000	      0.00000000	      0.00000000
      2.26000000	      0.00000000	     -0.00000000	      0.00000000	      0.00000000	      0.00000000	      0.00000000	      0.00000000	      0.00000000	      0.00000000	      4.00143051	     56.41954803	   -401.16076660	   -402.82110416	  -1162.96377091	      0.00000000	      0.00000000	      0.00000000	   1090.27387574	     -2.26805331	    -57.48466472	   -413.82031250	   -402.08525114	   -702.16727760	      0.00000000	      0.00000000	     -0.00000000	  -2833.69373828	      0.00000000	     -0.00000000	      0.00000000	      0.00000000	      0.00000000	      0.00000000	      0.00000000	      0.00000000	      0.00000000
      2.27000000	      0.00000000	     -0.00000000	      0.00000000	      0.00000000	      0.00000000	      0.00000000	      0.00000000	      0.00000000	      0.00000000	      4.03422594	     56.76948929	   -401.16027832	   -405.16460767	  -1162.79378055	      0.00000000	      0.00000000	      0.00000000	   1072.42017649	     -1.62267209	    -57.42197404	   -412.42446899	   -402.18325894	   -702.97502430	      0.00000000	      0.00000000	     -0.00000000	  -3061.36922274	      0.00000000	     -0.00000000	      0.00000000	      0.00000000	      0.00000000	      0.00000000	      0.00000000	      0.00000000	      0.00000000
      2.28000000	      0.00000000	     -0.00000000	      0.00000000	      0.00000000	      0.00000000	      0.00000000	      0.00000000	      0.00000000	      0.00000000	      4.42456722	     56.70023727	   -401.48654175	   -408.16005064	  -1162.24746739	      0.00000000	      0.00000000	      0.00000000	    991.23112815	     -1.64627028	    -57.32077775	   -414.46871948	   -401.28035819	   -701.59299391	      0.00000000	      0.00000000	     -0.00000000	  -2898.68728082	      0.00000000	     -0.00000000	      0.00000000	      0.00000000	      0.00000000	      0.00000000	      0.00000000	      0.00000000	      0.00000000
      2.29000000	      0.00000000	     -0.00000000	      0.00000000	      0.00000000	      0.00000000	      0.00000000	      0.00000000	      0.00000000	      0.00000000	      5.38622570	     56.02759552	   -402.54531860	   -408.64353227	  -1163.35610406	      0.00000000	      0.00000000	      0.00000000	    832.32933103	     -1.59679915	    -57.42224107	   -414.04183960	   -402.33035442	   -702.16047872	      0.00000000	      0.00000000	     -0.00000000	  -3003.95309571	      0.00000000	     -0.00000000	      0.00000000	      0.00000000	      0.00000000	      0.00000000	      0.00000000	      0.00000000	      0.00000000
      2.30000000	      0.00000000	     -0.00000000	      0.00000000	      0.00000000	      0.00000000	      0.00000000	      0.00000000	      0.00000000	      0.00000000	      5.98389626	     56.74214172	   -401.56561279	   -412.04821704	  -1163.42808824	      0.00000000	      0.00000000	      0.00000000	    833.00153477	     -1.60347384	    -57.89915452	   -414.36416626	   -402.15273050	   -702.02839402	      0.00000000	      0.00000000	     -0.00000000	  -2977.40722758	      0.00000000	     -0.00000000	      0.00000000	      0.00000000	      0.00000000	      0.00000000	      0.00000000	      0.00000000	      0.00000000
      2.31000000	      0.00000000	     -0.00000000	      0.00000000	      0.00000000	      0.00000000	      0.00000000	      0.00000000	      0.00000000	      0.00000000	      7.07504845	     57.13943863	   -399.85394287	   -415.04411691	  -1162.42499085	      0.00000000	      0.00000000	      0.00000000	   1051.37079037	     -1.60353598	    -58.27889619	   -414.44299316	   -402.01411815	   -701.93233274	      0.00000000	      0.00000000	     -0.00000000	  -2855.17191944	      0.00000000	     -0.00000000	      0.00000000	      0.00000000	      0.00000000	      0.00000000	      0.00000000	      0.00000000	      0.00000000
      2.32000000	      0.00000000	     -0.00000000	      0.00000000	      0.00000000	      0.00000000	      0.00000000	      0.00000000	      0.00000000	      0.00000000	      8.65341949	     57.03654861	   -398.03381348	   -417.13923145	  -1162.92101188	      0.00000000	      0.00000000	      0.00000000	    968.38691772	     -1.99278474	    -58.62530119	   -414.84561157	   -402.41975081	   -702.61678589	      0.00000000	      0.00000000	     -0.00000000	  -2966.17854687	      0.00000000	     -0.00000000	      0.00000000	      0.00000000	      0.00000000	      0.00000000	      0.00000000	      0.00000000	      0.00000000
      2.33000000	      0.00000000	     -0.00000000	      0.00000000	      0.00000000	      0.00000000	      0.00000000	      0.00000000	      0.00000000	      0.00000000	     10.11571980	     55.94060516	   -397.35510254	   -419.60914654	  -1163.46682086	      0.00000000	      0.00000000	      0.00000000	    877.34630870	     -1.76735287	    -59.16185364	   -417.23620605	   -401.66262864	   -701.13510964	      0.00000000	      0.00000000	     -0.00000000	  -3024.39880391	      0.00000000	     -0.00000000	      0.00000000	      0.00000000	      0.00000000	      0.00000000	      0.00000000	      0.00000000	      0.00000000
      2.34000000	      0.00000000	     -0.00000000	      0.00000000	      0.00000000	      0.00000000	      0.00000000	      0.00000000	      0.00000000	      0.00000000	     11.56212139	     56.33745575	   -395.29208374	   -422.57844530	  -1163.32398320	      0.00000000	      0.00000000	      0.00000000	   1043.25312619	     -1.56907819	    -59.84070192	   -416.18872070	   -402.43044501	   -701.52617176	      0.00000000	      0.00000000	     -0.00000000	  -3024.38675606	      0.00000000	     -0.00000000	      0.00000000	      0.00000000	      0.00000000	      0.00000000	      0.00000000	      0.00000000	      0.00000000
      2.35000000	      0.00000000	     -0.00000000	      0.00000000	      0.00000000	      0.00000000	      0.00000000	      0.00000000	      0.00000000	      0.00000000	     12.40026093	     56.13083649	   -395.44888306	   -424.44211680	  -1163.80487888	      0.00000000	      0.00000000	      0.00000000	    954.12193263	     -1.18821119	    -59.82163610	   -415.86712646	   -402.23475931	   -702.32763795	      0.00000000	      0.00000000	     -0.00000000	  -3298.93634257	      0.00000000	     -0.00000000	      0.00000000	      0.00000000	      0.00000000	      0.00000000	      0.00000000	      0.00000000	      0.00000000
      2.36000000	      0.00000000	     -0.00000000	      0.00000000	      0.00000000	      0.00000000	      0.00000000	      0.00000000	      0.00000000	      0.00000000	     13.62765503	     56.32323456	   -393.11773682	   -427.84682746	  -1163.23659457	      0.00000000	      0.00000000	      0.00000000	    890.22782135	     -1.41937779	    -59.88913714	   -416.24432373	   -402.95627775	   -702.13374083	      0.00000000	      0.00000000	     -0.00000000	  -3325.44458560	      0.00000000	     -0.00000000	      0.00000000	      0.00000000	      0.00000000	      0.00000000	      0.00000000	      0.00000000	      0.00000000
